<?xml version="1.0" standalone="no"?>
<!DOCTYPE svg PUBLIC "-//W3C//DTD SVG 20010904//EN"
 "http://www.w3.org/TR/2001/REC-SVG-20010904/DTD/svg10.dtd">
<svg version="1.0" xmlns="http://www.w3.org/2000/svg"
 width="1024.000000pt" height="1024.000000pt" viewBox="0 0 1024.000000 1024.000000"
 preserveAspectRatio="xMidYMid meet">

<g transform="translate(0.000000,1024.000000) scale(0.100000,-0.100000)"
fill="#000000" stroke="none">
<path d="M4465 7901 c-117 -41 -249 -110 -345 -181 -46 -35 -116 -82 -154
-107 -39 -24 -82 -51 -95 -60 -24 -17 -24 -17 -11 7 24 46 108 166 170 244
l61 77 -62 -39 c-120 -76 -182 -127 -273 -223 -109 -115 -176 -223 -225 -361
-36 -102 -36 -105 -35 -258 0 -142 3 -162 28 -235 31 -91 78 -181 138 -263 55
-77 227 -244 326 -317 44 -33 79 -61 78 -62 -2 -2 -62 17 -133 42 -72 25 -135
45 -140 45 -13 0 10 -133 38 -220 20 -63 96 -210 165 -316 37 -59 34 -58 272
-123 79 -21 145 -41 147 -43 2 -2 15 -68 28 -147 24 -138 26 -144 62 -181 l38
-39 -68 -253 c-37 -139 -92 -338 -121 -441 -30 -103 -54 -190 -54 -191 0 -2
95 -89 212 -192 262 -233 342 -307 484 -446 61 -59 114 -108 118 -108 4 0 81
69 169 154 166 157 308 287 525 480 67 60 122 114 122 119 0 6 -54 206 -121
444 l-120 434 39 44 c37 42 40 50 62 182 13 76 26 141 29 145 4 5 77 28 162
52 220 63 221 63 272 143 67 103 125 213 147 278 23 67 54 224 46 232 -3 3
-65 -15 -137 -41 -122 -43 -170 -53 -120 -26 37 19 203 161 270 229 305 313
370 661 190 1011 -53 103 -123 193 -224 288 -72 69 -239 192 -259 192 -3 0 17
-28 45 -62 49 -61 111 -151 160 -233 l23 -40 -24 17 c-14 10 -59 38 -100 64
-41 26 -109 72 -150 103 -42 31 -116 77 -165 103 -82 42 -251 108 -277 108 -6
0 15 -19 48 -42 231 -164 392 -342 460 -509 56 -136 80 -334 64 -507 -21 -222
-79 -373 -186 -478 -63 -61 -209 -162 -220 -151 -3 3 0 23 7 44 20 59 17 227
-5 293 -39 115 -87 192 -177 281 -69 69 -104 95 -170 128 -68 33 -169 67 -169
56 0 -1 49 -51 108 -111 144 -144 199 -246 217 -399 l7 -60 -59 57 c-32 31
-82 70 -110 88 -34 20 -53 38 -53 51 0 17 -8 19 -90 19 l-90 0 0 90 0 90 -140
0 -140 0 0 -90 0 -90 -85 0 c-76 0 -85 -2 -85 -19 0 -12 -22 -31 -64 -56 -36
-21 -88 -61 -117 -89 l-52 -51 6 66 c7 81 44 181 94 257 21 31 83 101 138 155
55 55 91 97 80 94 -160 -43 -228 -81 -341 -192 -68 -68 -89 -96 -127 -175 -74
-156 -84 -255 -42 -414 7 -26 6 -28 -11 -22 -52 20 -136 78 -201 142 -59 57
-81 88 -112 155 -66 142 -76 198 -76 414 0 227 17 312 94 470 78 159 198 291
399 437 109 80 109 81 -13 39z m-669 -650 c-14 -22 -38 -166 -45 -266 -7 -104
-8 -108 -21 -80 -9 20 -14 72 -14 162 l-1 132 35 30 c34 29 57 40 46 22z
m2693 -25 l33 -34 0 -109 c0 -66 -6 -125 -15 -153 l-14 -45 -7 80 c-7 73 -29
217 -43 273 -7 31 8 27 46 -12z m-1289 -506 l0 -89 88 -3 87 -3 0 -75 0 -75
-87 -3 -88 -3 0 -84 0 -85 -80 0 -80 0 0 85 0 85 -85 0 -85 0 0 80 0 80 85 0
85 0 0 90 0 90 80 0 80 0 0 -90z m-390 -240 l0 -70 85 0 85 0 0 -85 0 -85 140
0 140 0 0 85 0 85 85 0 85 0 0 70 c0 39 4 70 9 70 13 0 82 -107 97 -150 34
-94 7 -201 -69 -265 -87 -75 -199 -109 -352 -108 -156 1 -263 35 -347 111
-104 93 -105 243 -2 377 14 19 30 35 35 35 5 0 9 -31 9 -70z m1439 -546 c-24
-42 -62 -104 -84 -138 -36 -55 -46 -63 -102 -83 -96 -34 -245 -73 -241 -63 2
5 56 67 120 138 l117 129 113 51 c62 28 114 49 117 47 2 -2 -16 -39 -40 -81z
m-2178 22 c103 -49 120 -60 174 -122 33 -38 86 -97 119 -131 67 -72 62 -76
-45 -44 -35 11 -97 29 -137 41 -72 21 -74 22 -116 88 -40 61 -116 204 -116
217 0 8 2 7 121 -49z m605 -218 l-14 -46 164 -138 163 -138 -22 -40 c-12 -23
-23 -43 -24 -45 -1 -1 -65 53 -142 121 -125 111 -144 124 -171 120 -36 -5 -36
-13 -7 -102 l22 -65 112 -55 c61 -30 115 -59 120 -64 4 -5 -28 -6 -74 -4 -46
3 -83 2 -83 -2 0 -4 16 -51 36 -104 20 -54 34 -99 32 -102 -3 -2 -46 46 -97
107 l-92 111 -30 154 -29 154 71 96 c39 53 72 94 75 92 2 -3 -2 -25 -10 -50z
m952 -45 l69 -92 -29 -153 -29 -152 -68 -81 c-37 -44 -80 -97 -96 -118 -15
-21 -29 -36 -31 -34 -2 1 15 54 37 116 l40 114 -83 -7 c-103 -9 -99 -3 49 74
l107 55 23 75 c23 79 21 90 -24 90 -21 0 -105 -68 -234 -187 -31 -29 -58 -53
-62 -53 -9 0 -49 69 -45 79 2 4 66 61 143 126 196 165 177 142 160 198 -8 27
-10 47 -5 45 5 -2 40 -44 78 -95z m-374 -580 c69 -132 126 -246 126 -252 0 -6
-15 -34 -32 -61 l-33 -50 -62 0 c-35 0 -63 1 -63 3 0 2 11 18 25 37 31 41 31
44 3 58 -22 10 -21 11 9 11 24 1 38 9 57 34 l25 33 -27 67 -27 67 -136 0 -135
0 -31 -70 -31 -70 25 -30 c17 -21 34 -30 56 -31 l32 0 -23 -16 -22 -16 25 -33
c14 -18 25 -35 25 -38 0 -3 -26 -6 -58 -6 -64 0 -70 4 -110 71 l-21 35 130
258 c72 142 135 254 139 249 5 -4 65 -117 134 -250z m-214 -138 c33 -17 38
-32 15 -42 -18 -6 -55 23 -55 44 0 17 4 16 40 -2z m190 6 c0 -27 -15 -41 -41
-41 -37 0 -37 15 -1 34 32 18 42 19 42 7z m-367 -328 c36 -60 106 -199 157
-310 51 -112 96 -203 99 -203 3 0 46 90 94 200 86 192 203 410 224 417 6 2 12
-31 16 -83 6 -79 4 -90 -19 -136 -14 -28 -80 -168 -146 -312 -66 -143 -132
-285 -146 -315 l-25 -54 -15 29 c-9 16 -85 178 -170 359 l-155 330 2 85 c3 78
6 100 16 100 2 0 33 -48 68 -107z m387 5 l-19 -43 -115 -3 -115 -3 -21 40
c-11 22 -20 43 -20 46 0 3 70 5 155 5 l154 0 -19 -42z"/>
<path d="M2775 3394 c-34 -35 -1 -83 48 -70 48 12 29 86 -22 86 -5 0 -17 -7
-26 -16z"/>
<path d="M2926 3397 c-12 -9 -17 -23 -14 -42 2 -24 8 -31 31 -33 50 -6 75 38
41 72 -19 19 -35 20 -58 3z"/>
<path d="M4335 3318 c-3 -7 -4 -112 -3 -233 l3 -220 40 0 40 0 5 80 5 80 40
-64 c53 -84 70 -101 103 -101 59 0 59 13 3 101 -28 45 -53 85 -54 89 -1 5 20
34 47 65 38 45 46 59 35 66 -38 24 -82 5 -131 -59 l-43 -55 -5 129 -5 129 -38
3 c-24 2 -39 -1 -42 -10z"/>
<path d="M4151 3298 c-13 -36 2 -63 38 -66 38 -4 61 12 61 42 0 31 -19 46 -57
46 -26 0 -36 -5 -42 -22z"/>
<path d="M7454 3306 c-3 -8 -4 -27 -2 -43 3 -24 8 -28 36 -31 18 -2 40 2 48 9
17 14 18 51 2 67 -17 17 -77 15 -84 -2z"/>
<path d="M2808 3290 c-49 -15 -86 -43 -110 -84 -19 -35 -23 -55 -23 -131 0
-103 13 -138 71 -182 30 -22 49 -28 106 -31 150 -9 228 66 228 218 0 112 -45
187 -128 210 -43 12 -105 12 -144 0z m130 -87 c31 -19 42 -52 42 -125 0 -108
-48 -162 -127 -142 -54 13 -77 51 -81 132 -4 85 17 132 68 149 38 13 62 9 98
-14z"/>
<path d="M4842 3078 l3 -213 40 0 40 0 5 90 5 90 78 3 77 3 0 -90 c0 -88 1
-91 24 -97 14 -3 33 -4 43 -2 17 3 18 19 21 216 l2 212 -45 0 -45 0 0 -80 0
-80 -80 0 -80 0 0 80 0 80 -45 0 -45 0 2 -212z"/>
<path d="M5906 3230 c-4 -25 -12 -40 -20 -40 -17 0 -24 -17 -18 -47 3 -14 11
-23 23 -23 17 0 19 -9 19 -99 0 -116 3 -127 41 -146 59 -31 119 -13 119 35 0
28 -3 30 -35 30 -42 0 -48 15 -43 110 l3 65 38 3 c35 3 37 5 37 38 0 33 -1 34
-40 34 l-40 0 0 40 c0 40 0 40 -39 40 -37 0 -39 -1 -45 -40z"/>
<path d="M3193 3176 c-17 -8 -36 -23 -42 -35 -13 -24 -14 -91 -2 -110 6 -10 4
-25 -5 -42 -18 -36 -18 -63 1 -79 14 -12 13 -15 -5 -35 -37 -39 -22 -95 31
-114 49 -17 149 -14 189 7 42 21 64 61 55 102 -10 47 -45 67 -130 75 -55 5
-75 11 -75 21 0 10 14 14 55 14 46 0 60 4 87 29 27 24 33 36 33 69 0 31 4 42
18 46 14 3 18 12 15 33 l-3 28 -95 2 c-64 2 -105 -2 -127 -11z m105 -58 c35
-35 -14 -102 -57 -78 -14 7 -21 21 -21 38 0 33 16 52 45 52 12 0 26 -5 33 -12z
m6 -248 c52 -20 19 -65 -46 -64 -51 2 -65 15 -50 49 13 27 49 33 96 15z"/>
<path d="M3524 3171 c-43 -26 -64 -76 -64 -153 0 -118 52 -164 178 -156 84 6
108 21 98 62 -6 23 -9 25 -28 15 -11 -6 -42 -12 -68 -13 -52 -1 -90 22 -90 56
0 16 9 18 100 18 l100 0 0 45 c0 53 -19 95 -56 124 -36 28 -126 29 -170 2z
m124 -53 c5 -7 13 -23 16 -35 7 -22 5 -23 -53 -23 -50 0 -61 3 -61 17 0 42 72
72 98 41z"/>
<path d="M3794 3175 c-4 -8 19 -83 50 -166 l55 -150 -19 -48 c-10 -27 -16 -52
-13 -55 11 -11 80 -6 90 7 20 25 143 411 135 419 -5 5 -25 8 -43 6 -33 -3 -34
-5 -62 -93 -16 -49 -31 -97 -34 -105 -3 -8 -20 30 -39 84 -19 55 -39 103 -46
108 -22 13 -68 9 -74 -7z"/>
<path d="M4162 3182 c-9 -7 -12 -46 -10 -163 l3 -154 40 0 40 0 3 154 c3 162
1 171 -43 171 -11 0 -26 -4 -33 -8z"/>
<path d="M5320 3173 c-35 -18 -47 -41 -36 -68 4 -12 10 -12 40 0 38 16 84 19
102 7 7 -4 14 -18 15 -32 4 -24 1 -25 -56 -31 -94 -9 -125 -34 -125 -99 0 -72
88 -112 163 -74 21 12 32 13 35 5 2 -6 19 -11 38 -11 l34 0 0 129 c0 122 -1
132 -24 157 -20 24 -32 28 -87 31 -48 3 -73 -1 -99 -14z m120 -203 c0 -52 -81
-71 -88 -21 -5 30 20 51 60 51 24 0 28 -4 28 -30z"/>
<path d="M5642 3165 c-34 -28 -44 -66 -30 -107 8 -22 25 -37 67 -56 39 -19 57
-34 59 -49 4 -31 -34 -39 -83 -19 -51 22 -55 21 -55 -15 0 -25 6 -32 35 -45
98 -40 195 6 195 95 0 39 -20 61 -81 90 -39 19 -54 32 -54 46 0 20 18 23 95
13 21 -2 26 2 28 24 4 34 -25 48 -98 48 -37 0 -55 -6 -78 -25z"/>
<path d="M6170 3179 c-33 -13 -49 -35 -43 -60 5 -17 11 -19 32 -14 93 24 131
15 131 -31 0 -22 -4 -24 -45 -24 -87 0 -135 -35 -135 -99 0 -43 9 -60 41 -76
36 -19 76 -19 113 0 26 14 31 14 47 -1 12 -11 27 -14 44 -10 25 6 25 7 25 120
0 130 -11 171 -51 191 -31 17 -121 19 -159 4z m120 -201 c0 -49 -68 -79 -90
-39 -13 25 -13 27 6 45 8 9 31 16 50 16 28 0 34 -4 34 -22z"/>
<path d="M6467 3183 c-4 -3 -7 -75 -7 -160 l0 -153 45 0 45 0 0 104 c0 101 1
105 26 125 33 26 39 26 64 1 17 -17 20 -33 20 -124 0 -94 2 -105 19 -111 11
-3 31 -3 45 1 26 6 26 6 26 113 0 121 -12 174 -43 196 -30 21 -96 19 -134 -4
-31 -19 -31 -19 -36 0 -4 13 -14 19 -34 19 -16 0 -33 -3 -36 -7z"/>
<path d="M6884 3172 c-41 -26 -64 -78 -64 -146 0 -69 18 -116 55 -140 37 -25
129 -31 180 -13 34 12 40 18 40 43 0 24 -4 28 -20 25 -109 -19 -165 -5 -165
42 0 22 3 23 87 21 49 -1 94 1 100 3 31 12 6 120 -36 158 -33 29 -136 33 -177
7z m124 -54 c7 -7 12 -22 12 -35 0 -21 -4 -23 -60 -23 l-60 0 11 27 c6 15 16
31 22 35 18 12 62 9 75 -4z"/>
<path d="M7199 3162 c-23 -21 -31 -37 -32 -64 -1 -45 22 -74 81 -100 48 -22
61 -41 42 -63 -16 -19 -47 -19 -84 0 -40 21 -46 19 -46 -14 0 -37 19 -52 74
-58 86 -10 156 35 156 101 0 44 -18 65 -81 95 -39 19 -54 32 -54 46 0 16 6 20
35 19 19 0 46 -3 60 -5 19 -3 26 1 28 18 5 32 -33 53 -95 53 -43 0 -58 -5 -84
-28z"/>
<path d="M7461 3177 c-8 -10 -11 -58 -9 -158 l3 -144 43 -3 43 -3 -3 158 -3
158 -31 3 c-18 2 -36 -3 -43 -11z"/>
</g>
</svg>
